custom-analysis
version=1
nRows=15
nColumns=42
inDegrees=no

This file contains tibia displacement and acting force.

Units are S.I. units (seconds, meters, Newtons, ...)
Angles are in degrees.

endheader
time	APT	SIT	knee_angle	aACL_R_force	pACL_R_force	aPCL_R_force	pPCL_R_force	aMCL_R_force	mMCL_R_force	pMCL_R_force	aLCL_R_force	mLCL_R_force	pLCL_R_force	aACL_R_length	pACL_R_length	aPCL_R_length	pPCL_R_length	aMCL_R_length	mMCL_R_length	pMCL_R_length	aLCL_R_length	mLCL_R_length	pLCL_R_length	aACL_R_strain	pACL_R_strain	aPCL_R_strain	pPCL_R_strain	aMCL_R_strain	mMCL_R_strain	pMCL_R_strain	aLCL_R_strain	mLCL_R_strain	pLCL_R_strain	femur_lat_meniscii_force_r	femur_lat_meniscii_torque_r	femur_med_meniscii_force_r	femur_med_meniscii_torque_r	femur_lat_tibia_force_r	femur_lat_tibia_torque_r	femur_med_tibia_force_r	femur_med_tibia_torque_r
      0.71880947	      0.00186961	     -0.00028164	     30.00011112	     67.40255289	     49.22375848	     97.21448429	     59.85281210	      0.00000000	      0.00000000	      0.00000000	      3.18332693	      0.00000000	      0.00000000	      0.03394254	      0.02718164	      0.03226384	      0.03078693	      0.05678880	      0.05868818	      0.05775460	      0.05715350	      0.05388944	      0.05017226	      0.09472638	      0.07188615	      0.03757924	      0.02323630	     -0.02133841	     -0.01848566	     -0.04896251	      0.02101385	     -0.04313242	     -0.04146598	    145.74713005	     44.83641180	    123.30607842	     42.29472505	      0.00000000	      0.00000000	     42.56753577	      1.03308297
      0.71943936	      0.00186954	     -0.00028166	     30.00011112	     67.32537916	     49.14191965	     97.11794397	     59.58118367	      0.00000000	      0.00000000	      0.00000000	      2.90602574	      0.00000000	      0.00000000	      0.03394260	      0.02718173	      0.03226390	      0.03078696	      0.05678865	      0.05868803	      0.05775446	      0.05715375	      0.05388970	      0.05017251	      0.09472844	      0.07188988	      0.03758112	      0.02323740	     -0.02134093	     -0.01848811	     -0.04896494	      0.02101838	     -0.04312788	     -0.04146112	    146.55476165	     45.08695670	    124.08206287	     42.55855490	      0.00000000	      0.00000000	     42.71806343	      1.03671138
      0.72006924	      0.00186947	     -0.00028168	     30.00011112	     67.35117782	     49.17124105	     97.15605404	     59.66001430	      0.00000000	      0.00000000	      0.00000000	      2.97497504	      0.00000000	      0.00000000	      0.03394266	      0.02718183	      0.03226396	      0.03078700	      0.05678851	      0.05868789	      0.05775431	      0.05715400	      0.05388995	      0.05017277	      0.09473038	      0.07189348	      0.03758312	      0.02323863	     -0.02134339	     -0.01849051	     -0.04896731	      0.02102292	     -0.04312336	     -0.04145626	    146.25272454	     44.99397348	    123.91741715	     42.50078342	      0.00000000	      0.00000000	     42.71254211	      1.03658751
      0.72321867	      0.00186922	     -0.00028183	     30.00011112	     67.42169460	     49.25315016	     97.26897896	     59.86002939	      0.00000000	      0.00000000	      0.00000000	      3.12016271	      0.00000000	      0.00000000	      0.03394305	      0.02718235	      0.03226425	      0.03078718	      0.05678791	      0.05868729	      0.05775371	      0.05715522	      0.05389117	      0.05017398	      0.09474293	      0.07191430	      0.03759247	      0.02324451	     -0.02135370	     -0.01850058	     -0.04897727	      0.02104458	     -0.04310170	     -0.04143306	    145.40940215	     44.73608653	    123.57429171	     42.37838390	      0.00000000	      0.00000000	     42.73598839	      1.03718688
      0.72665648	      0.00186877	     -0.00028269	     30.00011112	     67.26764339	     49.09334213	     97.11321362	     59.16569831	      0.00000000	      0.00000000	      0.00000000	      2.27892610	      0.00000000	      0.00000000	      0.03394389	      0.02718334	      0.03226523	      0.03078806	      0.05678805	      0.05868743	      0.05775384	      0.05715708	      0.05389303	      0.05017584	      0.09476987	      0.07195315	      0.03762417	      0.02327373	     -0.02135120	     -0.01849811	     -0.04897504	      0.02107780	     -0.04306865	     -0.04139756	    147.40417736	     45.36055900	    125.09915074	     42.92186017	      0.00000000	      0.00000000	     42.90893702	      1.04149868
      0.72936574	      0.00186898	     -0.00028196	     30.00011112	     67.49426230	     49.34246142	     97.40212152	     60.11780431	      0.00000000	      0.00000000	      0.00000000	      3.26765500	      0.00000000	      0.00000000	      0.03394367	      0.02718318	      0.03226451	      0.03078726	      0.05678691	      0.05868627	      0.05775270	      0.05715691	      0.05389288	      0.05017568	      0.09476302	      0.07194687	      0.03760079	      0.02324743	     -0.02137098	     -0.01851749	     -0.04899393	      0.02107484	     -0.04307140	     -0.04140063	    144.36626986	     44.41463884	    123.22700126	     42.26625063	      0.00000000	      0.00000000	     42.82935478	      1.03943916
      0.73111175	      0.00186877	     -0.00028238	     30.00011112	     67.27222877	     49.10371149	     97.13681124	     59.29073601	      0.00000000	      0.00000000	      0.00000000	      2.37243397	      0.00000000	      0.00000000	      0.03394403	      0.02718359	      0.03226498	      0.03078770	      0.05678707	      0.05868644	      0.05775286	      0.05715768	      0.05389365	      0.05017645	      0.09477448	      0.07196316	      0.03761590	      0.02326180	     -0.02136816	     -0.01851472	     -0.04899132	      0.02108856	     -0.04305777	     -0.04138598	    146.93174381	     45.21222555	    125.25013737	     42.96215140	      0.00000000	      0.00000000	     43.10981538	      1.04623403
      0.73285776	      0.00186874	     -0.00028218	     30.00011112	     67.39289573	     49.23523194	     97.29850177	     59.74626141	      0.00000000	      0.00000000	      0.00000000	      2.82089610	      0.00000000	      0.00000000	      0.03394395	      0.02718354	      0.03226485	      0.03078754	      0.05678667	      0.05868604	      0.05775246	      0.05715779	      0.05389376	      0.05017656	      0.09477193	      0.07196128	      0.03761176	      0.02325644	     -0.02137501	     -0.01852140	     -0.04899785	      0.02109061	     -0.04305567	     -0.04138374	    145.47992570	     44.76147681	    124.23391605	     42.60891700	      0.00000000	      0.00000000	     43.01501418	      1.04391626
      0.73605812	      0.00186862	     -0.00028237	     30.00011112	     67.42570223	     49.27060191	     97.35657962	     59.82814618	      0.00000000	      0.00000000	      0.00000000	      2.83713481	      0.00000000	      0.00000000	      0.03394419	      0.02718383	      0.03226509	      0.03078773	      0.05678657	      0.05868593	      0.05775235	      0.05715841	      0.05389438	      0.05017718	      0.09477950	      0.07197270	      0.03761958	      0.02326304	     -0.02137683	     -0.01852318	     -0.04899963	      0.02110161	     -0.04304470	     -0.04137196	    145.21624459	     44.68214562	    123.99013462	     42.52598176	      0.00000000	      0.00000000	     42.96960608	      1.04283316
      0.73997155	      0.00186842	     -0.00028317	     30.00011112	     67.28133441	     49.11147236	     97.20138085	     59.20368703	      0.00000000	      0.00000000	      0.00000000	      2.07507525	      0.00000000	      0.00000000	      0.03394480	      0.02718448	      0.03226588	      0.03078850	      0.05678716	      0.05868653	      0.05775294	      0.05715949	      0.05389547	      0.05017826	      0.09479917	      0.07199836	      0.03764507	      0.02328847	     -0.02136665	     -0.01851326	     -0.04898998	      0.02112093	     -0.04302548	     -0.04135129	    147.22868803	     45.31204127	    125.21575375	     42.95635564	      0.00000000	      0.00000000	     43.00561101	      1.04379031
      0.74257637	      0.00186885	     -0.00028250	     30.00011112	     67.48601976	     49.33016955	     97.44973282	     60.07054782	      0.00000000	      0.00000000	      0.00000000	      2.98189305	      0.00000000	      0.00000000	      0.03394446	      0.02718411	      0.03226512	      0.03078774	      0.05678652	      0.05868588	      0.05775230	      0.05715881	      0.05389480	      0.05017759	      0.09478844	      0.07198352	      0.03762055	      0.02326324	     -0.02137770	     -0.01852416	     -0.04900043	      0.02110880	     -0.04303735	     -0.04136409	    144.63736989	     44.50503857	    123.40252663	     42.32637996	      0.00000000	      0.00000000	     42.83041466	      1.03944531
      0.74518118	      0.00186880	     -0.00028307	     30.00011112	     67.36347301	     49.19413786	     97.31161136	     59.56733859	      0.00000000	      0.00000000	      0.00000000	      2.38353448	      0.00000000	      0.00000000	      0.03394482	      0.02718445	      0.03226565	      0.03078828	      0.05678714	      0.05868650	      0.05775293	      0.05715933	      0.05389531	      0.05017811	      0.09480000	      0.07199708	      0.03763757	      0.02328118	     -0.02136693	     -0.01851368	     -0.04899015	      0.02111802	     -0.04302818	     -0.04135420	    146.31842524	     45.02956051	    124.37075513	     42.66702852	      0.00000000	      0.00000000	     42.83644553	      1.03966258
      0.74846593	      0.00186926	     -0.00028258	     30.00011112	     67.51796916	     49.35668132	     97.49694487	     60.23636140	      0.00000000	      0.00000000	      0.00000000	      3.06802834	      0.00000000	      0.00000000	      0.03394452	      0.02718407	      0.03226503	      0.03078769	      0.05678687	      0.05868622	      0.05775266	      0.05715856	      0.05389455	      0.05017735	      0.09479023	      0.07198196	      0.03761742	      0.02326148	     -0.02137160	     -0.01851836	     -0.04899449	      0.02110428	     -0.04304167	     -0.04136872	    144.42376241	     44.43864564	    122.88293688	     42.15282401	      0.00000000	      0.00000000	     42.64377665	      1.03493112
      0.75126242	      0.00186910	     -0.00028352	     30.00011112	     67.29042025	     49.10607527	     97.23052190	     59.30203262	      0.00000000	      0.00000000	      0.00000000	      2.00033089	      0.00000000	      0.00000000	      0.03394502	      0.02718454	      0.03226591	      0.03078861	      0.05678801	      0.05868737	      0.05775380	      0.05715921	      0.05389520	      0.05017800	      0.09480638	      0.07200054	      0.03764585	      0.02329205	     -0.02135190	     -0.01849912	     -0.04897570	      0.02111589	     -0.04303023	     -0.04135635	    147.50004449	     45.39706180	    124.66364476	     42.77863385	      0.00000000	      0.00000000	     42.68284395	      1.03601086
      0.75405890	      0.00186960	     -0.00028279	     30.00011112	     67.49190679	     49.31968595	     97.46615078	     60.17441420	      0.00000000	      0.00000000	      0.00000000	      2.92488904	      0.00000000	      0.00000000	      0.03394452	      0.02718394	      0.03226503	      0.03078778	      0.05678762	      0.05868698	      0.05775342	      0.05715801	      0.05389400	      0.05017680	      0.09479013	      0.07197680	      0.03761758	      0.02326455	     -0.02135860	     -0.01850576	     -0.04898196	      0.02109442	     -0.04305145	     -0.04137918	    144.98854007	     44.61280975	    122.70952782	     42.08757166	      0.00000000	      0.00000000	     42.46193087	      1.03054995
